<svg id='Javascript_48' width='48' height='48' viewBox='0 0 48 48' xmlns='http://www.w3.org/2000/svg' xmlns:xlink='http://www.w3.org/1999/xlink'><rect width='48' height='48' stroke='none' fill='#000000' opacity='0'/>


<g transform="matrix(0.92 0 0 0.92 24 24)" >
<g style="" >
<g transform="matrix(1 0 0 1 1 0)" >
<polygon style="stroke: none; stroke-width: 1; stroke-dasharray: none; stroke-linecap: butt; stroke-dashoffset: 0; stroke-linejoin: miter; stroke-miterlimit: 4; fill: rgb(231,164,43); fill-rule: nonzero; opacity: 1;" points="-17,-19 17,-19 13,15 0,19 -14,15 " />
</g>
<g transform="matrix(1 0 0 1 7.82 -0.07)" >
<polygon style="stroke: none; stroke-width: 1; stroke-dasharray: none; stroke-linecap: butt; stroke-dashoffset: 0; stroke-linejoin: miter; stroke-miterlimit: 4; fill: rgb(242,191,34); fill-rule: nonzero; opacity: 1;" points="6.82,-15.93 3.43,12.78 -6.82,15.93 -6.82,-15.93 " />
</g>
<g transform="matrix(1 0 0 1 -3.11 -5.5)" >
<polygon style="stroke: none; stroke-width: 1; stroke-dasharray: none; stroke-linecap: butt; stroke-dashoffset: 0; stroke-linejoin: miter; stroke-miterlimit: 4; fill: rgb(250,249,248); fill-rule: nonzero; opacity: 1;" points="4.11,2.5 5.11,4.5 4.11,6.5 -5.11,6.5 -4.25,-6.5 4.11,-6.5 5.11,-4.5 4.11,-2.5 0.14,-2.5 -0.2,2.5 " />
</g>
<g transform="matrix(1 0 0 1 -2.98 8.37)" >
<polygon style="stroke: none; stroke-width: 1; stroke-dasharray: none; stroke-linecap: butt; stroke-dashoffset: 0; stroke-linejoin: miter; stroke-miterlimit: 4; fill: rgb(235,235,235); fill-rule: nonzero; opacity: 1;" points="3.88,0.2 3.98,0.17 4.98,2.63 3.98,4.35 3.92,4.37 -4.41,1.99 -4.97,-4.37 -0.95,-4.37 -0.67,-1.1 " />
</g>
<g transform="matrix(1 0 0 1 5.54 4.86)" >
<polygon style="stroke: none; stroke-width: 1; stroke-dasharray: none; stroke-linecap: butt; stroke-dashoffset: 0; stroke-linejoin: miter; stroke-miterlimit: 4; fill: rgb(255,255,255); fill-rule: nonzero; opacity: 1;" points="4.54,-7.86 2.96,5.56 -4.54,7.86 -4.54,3.68 -0.71,2.5 0.04,-3.86 -4.54,-3.86 -4.54,-7.86 " />
</g>
<g transform="matrix(1 0 0 1 5.96 -9)" >
<polygon style="stroke: none; stroke-width: 1; stroke-dasharray: none; stroke-linecap: butt; stroke-dashoffset: 0; stroke-linejoin: miter; stroke-miterlimit: 4; fill: rgb(255,255,255); fill-rule: nonzero; opacity: 1;" points="4.96,3 0.97,3 0.71,1 -4.96,1 -4.96,-3 4.17,-3 4.34,-1.74 " />
</g>
</g>
</g>
</svg>